<?xml version="1.0" encoding="utf-8"?>
<!-- Generator: Adobe Illustrator 22.1.0, SVG Export Plug-In . SVG Version: 6.00 Build 0)  -->
<svg version="1.1" id="Layer_1" xmlns="http://www.w3.org/2000/svg" xmlns:xlink="http://www.w3.org/1999/xlink" x="0px" y="0px"
	 viewBox="0 0 256.2 49.4" style="enable-background:new 0 0 256.2 49.4;" xml:space="preserve">
<style type="text/css">
	.st0{fill:#578EC9;}
	.st1{fill:#202020;}
</style>
<title>Asset 2</title>
<polygon class="st0" points="32.8,34 32.8,34 31,28.8 29.2,28.8 28.4,28.8 28.4,29.7 29.2,29.8 29.2,34.8 28.4,34.9 28.4,35.8 
	31.3,35.8 31.3,34.9 30.6,34.8 30.6,33.7 30.4,30.7 30.5,30.6 32.3,35.8 33.3,35.8 35.1,30.6 35.2,30.6 35,33.7 35,34.8 34.3,34.9 
	34.3,35.8 37.2,35.8 37.2,34.9 36.4,34.8 36.4,29.8 37.2,29.7 37.2,28.8 34.6,28.8 "/>
<polygon class="st0" points="8.8,34.3 8.7,34.5 8.7,34.4 7.9,32.1 6.5,32.1 6.5,32.9 7.2,32.9 8.4,35.9 9.1,35.9 11.6,28.7 
	10.6,28.7 "/>
<polygon class="st0" points="16.8,35.2 15.3,33.2 16.7,31.2 17.4,31.2 17.4,30.5 15.3,30.5 15.3,31.2 15.7,31.2 14.8,32.5 
	13.9,31.2 14.2,31.2 14.2,30.5 12.2,30.5 12.2,31.2 12.8,31.2 14.3,33.2 12.8,35.2 12.1,35.2 12.1,35.9 14.2,35.9 14.2,35.2 
	13.8,35.2 14.8,33.8 15.8,35.2 15.4,35.2 15.4,35.9 17.5,35.9 17.5,35.2 "/>
<path class="st0" d="M28.7,12.2c0,0.5,0.4,0.9,1.1,1.2c-0.3,0.7-0.3,1.3,0.1,1.7c0.2,0.2,0.5,0.3,0.8,0.3s0.6-0.1,0.9-0.2
	c0.3,0.7,0.8,1.1,1.2,1.1s0.9-0.4,1.2-1.1c0.3,0.1,0.6,0.2,0.9,0.2c0.3,0,0.5-0.1,0.8-0.3c0.3-0.3,0.3-0.9,0.1-1.7
	c0.7-0.3,1.1-0.8,1.1-1.2s-0.4-0.9-1.1-1.2c0.3-0.5,0.3-1.2-0.1-1.7C35.5,9.1,35.3,9,35,9s-0.6,0.1-0.9,0.2
	c-0.3-0.7-0.8-1.1-1.2-1.1S32,8.5,31.7,9.2C31.3,9.1,31,9,30.6,9v0.4c0.3,0,0.5,0.1,0.7,0.2c-0.1,0.3-0.2,0.6-0.2,0.9
	c-0.3,0.1-0.6,0.1-0.9,0.2c-0.2-0.6-0.2-1,0-1.2c0.1-0.1,0.3-0.2,0.4-0.1V9l0,0c-0.3,0-0.6,0.1-0.8,0.3c-0.3,0.3-0.3,1-0.1,1.7
	C29.1,11.3,28.7,11.7,28.7,12.2z M31.6,13.9H32l0.3,0.3c-0.2,0.1-0.4,0.2-0.6,0.3C31.7,14.4,31.7,14.1,31.6,13.9z M32.8,15.8
	c-0.3,0-0.6-0.3-0.8-0.9c0.3-0.1,0.6-0.3,0.8-0.5c0.3,0.2,0.5,0.3,0.8,0.5C33.4,15.5,33,15.8,32.8,15.8z M33.8,14.6
	c-0.2-0.1-0.4-0.2-0.6-0.3l0.3-0.3H34C33.9,14.1,33.8,14.4,33.8,14.6L33.8,14.6z M36.5,12.2c0,0.3-0.3,0.6-0.8,0.8
	c-0.1-0.3-0.3-0.6-0.5-0.8c0.2-0.3,0.3-0.5,0.5-0.8C36.2,11.6,36.5,11.9,36.5,12.2L36.5,12.2z M34.6,12.9c0.1-0.1,0.2-0.2,0.3-0.3
	c0.1,0.2,0.2,0.4,0.3,0.6c-0.2,0.1-0.4,0.1-0.7,0.2C34.5,13.2,34.6,13.1,34.6,12.9L34.6,12.9z M34.6,11c0.2,0,0.4,0.1,0.7,0.2
	c-0.1,0.2-0.2,0.4-0.3,0.6c-0.1-0.1-0.2-0.2-0.3-0.3S34.5,11.1,34.6,11L34.6,11z M35,9.4c0.2,0,0.3,0,0.4,0.1c0.2,0.2,0.2,0.6,0,1.2
	c-0.3-0.1-0.6-0.2-0.9-0.2c-0.1-0.3-0.1-0.6-0.2-0.9C34.5,9.5,34.7,9.5,35,9.4z M34.5,13.8c0.3-0.1,0.6-0.1,0.9-0.3
	c0.2,0.6,0.2,1,0,1.2c-0.1,0.1-0.3,0.2-0.4,0.1c-0.3,0-0.5-0.1-0.8-0.2C34.3,14.4,34.4,14.1,34.5,13.8L34.5,13.8z M34,10.4h-0.4
	l-0.3-0.3c0.2-0.1,0.4-0.2,0.6-0.3C33.8,10,33.9,10.2,34,10.4z M32.8,8.5c0.3,0,0.6,0.3,0.8,0.9c-0.3,0.1-0.6,0.3-0.8,0.5
	c-0.3-0.2-0.5-0.3-0.8-0.5C32.2,8.8,32.5,8.5,32.8,8.5z M31.8,9.8c0.2,0.1,0.4,0.2,0.6,0.3L32,10.4h-0.4C31.7,10.2,31.7,10,31.8,9.8
	L31.8,9.8z M31.4,12.2c0-0.4,0.1-0.7,0.4-0.9l0,0c0.2-0.2,0.6-0.4,0.9-0.4l0,0c0.4,0,0.7,0.1,0.9,0.4l0,0c0.2,0.2,0.4,0.6,0.4,0.9
	l0,0c0,0.3-0.1,0.7-0.4,0.9l0,0c-0.3,0.2-0.6,0.4-0.9,0.4l0,0c-0.4,0-0.7-0.1-0.9-0.4l0,0C31.6,12.9,31.4,12.5,31.4,12.2z
	 M31.4,14.7c-0.2,0.1-0.5,0.2-0.7,0.2s-0.3,0-0.4-0.1c-0.2-0.2-0.2-0.6,0-1.2c0.3,0.1,0.6,0.2,0.9,0.3
	C31.2,14.1,31.3,14.4,31.4,14.7L31.4,14.7z M30.4,13.2c0.1-0.2,0.2-0.4,0.3-0.6c0.1,0.1,0.2,0.2,0.3,0.3s0,0.3,0,0.4
	C30.8,13.3,30.6,13.2,30.4,13.2L30.4,13.2z M31.1,11c0,0.1,0,0.3,0,0.4s-0.2,0.2-0.3,0.3c-0.1-0.2-0.2-0.4-0.3-0.6
	C30.6,11.1,30.9,11,31.1,11z M30,11.4c0.1,0.3,0.3,0.6,0.5,0.8c-0.2,0.3-0.3,0.5-0.5,0.8c-0.5-0.3-0.9-0.6-0.9-0.8
	S29.4,11.6,30,11.4z"/>
<path class="st0" d="M9,14.8l-0.7-0.1v-1.4h1.1c0.6,0,1.3-0.2,1.8-0.6c0.4-0.4,0.7-0.9,0.6-1.5c0-0.6-0.2-1.1-0.6-1.5
	C10.7,9.2,10,9,9.4,9H6.3v0.8L7,10v4.6l-0.7,0.1v0.8H9V14.8z M8.3,10h1.1c0.3,0,0.6,0.1,0.8,0.3s0.3,0.5,0.3,0.8s-0.1,0.6-0.3,0.8
	C10,12,9.7,12.1,9.4,12.1H8.3V10z"/>
<path class="st0" d="M12.8,14.6l-0.6,0.1v0.8h2.5v-0.8l-0.6-0.1V12c0.1-0.1,0.2-0.2,0.3-0.3s0.3-0.1,0.5-0.1s0.4,0.1,0.6,0.2
	c0.2,0.2,0.2,0.5,0.2,0.8v1.9l-0.6,0.1v0.8h2.5v-0.8l-0.6,0v-1.9c0-0.6-0.1-1.1-0.4-1.6c-0.5-0.5-1.3-0.6-1.9-0.3
	c-0.2,0.1-0.4,0.3-0.6,0.5V8.6h-2v0.8l0.7,0.1V14.6z"/>
<path class="st0" d="M0,0.1V32c0,4.8,2.9,9.1,7.3,11l15.1,6.4l15-6.4c4.4-1.9,7.3-6.2,7.3-11V0.1H0z M41.7,21.3H23.9V3.2h17.7v18.1
	H41.7z M20.8,3.2v18.1H3.1V3.2H20.8z M3.1,32v-7.7h17.7v21L8.5,40.1C5.3,38.8,3.1,35.6,3.1,32z M36.2,40.2l-12.3,5.2v-21h17.7V32
	C41.7,35.6,39.5,38.8,36.2,40.2L36.2,40.2z"/>
<path class="st1" d="M66.4,1.2c1.7-0.1,3.3,0.5,4.6,1.5c1.1,1,1.8,2.5,1.7,4c0,1.5-0.6,2.9-1.7,3.9c-1.3,1.1-3,1.6-4.6,1.5h-2.9v3.8
	l1.8,0.4v2.1h-7.1v-2.1l1.8-0.4V3.6l-1.8-0.3V1.2H66.4z M63.5,9.5h2.9c0.8,0.1,1.6-0.2,2.2-0.8c0.5-0.5,0.8-1.3,0.7-2
	c0-0.7-0.2-1.5-0.7-2c-0.6-0.6-1.4-0.9-2.2-0.8h-2.9V9.5z"/>
<path class="st1" d="M73.7,16.3l1.7-0.4V2.4l-1.8-0.3V0h5.3v7.2c0.4-0.6,0.9-1,1.5-1.4c1.7-0.9,3.7-0.5,5,0.8
	c0.8,1.2,1.2,2.6,1.1,4.1v5.1l1.6,0.4v2.1h-6.5v-2.1l1.5-0.4v-5.1c0.1-0.7-0.1-1.5-0.5-2.1c-0.4-0.5-1-0.7-1.6-0.7
	c-0.4,0-0.9,0.1-1.3,0.3C79.3,8.4,79,8.7,78.8,9v6.9l1.5,0.4v2.1h-6.6C73.7,18.4,73.7,16.3,73.7,16.3z"/>
<path class="st1" d="M102.3,7.7l-1.2,0.2l-4.7,12.4c-0.3,0.9-0.8,1.6-1.5,2.3c-0.8,0.7-1.8,1-2.8,0.9c-0.3,0-0.5,0-0.8-0.1l-0.9-0.2
	l0.4-2.5h0.3h0.3c0.5,0,0.9-0.1,1.3-0.4c0.3-0.3,0.6-0.6,0.7-1l0.4-1L90,7.8l-1.2-0.2v-2H95v2.1l-1.4,0.2l1.7,5.1l0.2,0.9h0.1l2-6
	l-1.4-0.2V5.6h6.2L102.3,7.7L102.3,7.7z"/>
<path class="st1" d="M113.8,10h-2.3l-0.4-1.6c-0.3-0.2-0.6-0.4-0.9-0.5c-0.4-0.1-0.8-0.2-1.2-0.2c-0.5,0-1,0.1-1.4,0.4
	c-0.3,0.2-0.5,0.6-0.5,1s0.2,0.8,0.5,1c0.6,0.4,1.3,0.6,2,0.7c1.3,0.2,2.4,0.7,3.5,1.4c0.8,0.6,1.2,1.5,1.1,2.5
	c0,1.1-0.5,2.2-1.5,2.8c-1.1,0.8-2.5,1.1-3.9,1.1c-0.9,0-1.8-0.1-2.7-0.4c-0.8-0.3-1.5-0.7-2.1-1.3V14h2.4l0.5,1.6
	c0.2,0.2,0.5,0.3,0.8,0.4c0.4,0.1,0.7,0.1,1.1,0.1c0.6,0,1.1-0.1,1.6-0.4c0.6-0.3,0.7-1.1,0.4-1.6c-0.1-0.2-0.2-0.3-0.4-0.4
	c-0.6-0.4-1.3-0.6-2-0.7c-1.2-0.2-2.4-0.7-3.4-1.4c-0.8-0.6-1.2-1.5-1.1-2.4c0-1.1,0.5-2.1,1.3-2.8c1.1-0.8,2.4-1.2,3.8-1.2
	c0.9,0,1.9,0.1,2.8,0.4c0.8,0.2,1.5,0.5,2.1,1L113.8,10z"/>
<path class="st1" d="M115.4,7.7V5.6h5l0.1,1.7c0.4-0.6,0.9-1.1,1.5-1.4c0.7-0.3,1.4-0.5,2.1-0.5s1.5,0.2,2.1,0.5
	c0.6,0.4,1.1,1,1.3,1.6c0.4-0.6,0.9-1.2,1.5-1.5c0.7-0.4,1.4-0.6,2.2-0.6c1.1-0.1,2.3,0.4,3,1.3c0.8,1.1,1.2,2.5,1.1,3.9v5.2
	l1.6,0.4v2.1h-6.6v-2.1l1.5-0.4v-5.3c0.1-0.7-0.1-1.4-0.5-2c-0.4-0.4-0.9-0.6-1.4-0.6c-0.4,0-0.9,0.1-1.3,0.3
	c-0.4,0.2-0.7,0.5-0.9,0.9c0,0.1,0,0.3,0,0.4c0,0.1,0,0.2,0,0.3v6l1.4,0.4v2.1h-6.2v-2.1l1.4-0.4v-5.3c0.1-0.7-0.1-1.4-0.5-2
	c-0.3-0.4-0.8-0.6-1.4-0.6c-0.4,0-0.8,0.1-1.2,0.3c-0.3,0.2-0.6,0.4-0.9,0.8v6.9l1.5,0.4v2.1h-6.6v-2.1l1.7-0.4V8L115.4,7.7z"/>
<path class="st1" d="M146.2,18.3c-0.1-0.2-0.2-0.4-0.2-0.6c-0.1-0.2-0.1-0.5-0.2-0.7c-0.4,0.5-0.9,0.9-1.5,1.1
	c-0.6,0.3-1.3,0.4-2,0.4c-1.1,0.1-2.2-0.3-3-1c-0.7-0.7-1.1-1.7-1.1-2.8c-0.1-1.1,0.5-2.2,1.5-2.8c1.3-0.7,2.7-1.1,4.2-1h1.8V9.8
	c0-0.5-0.2-1-0.5-1.4c-0.4-0.4-1-0.6-1.6-0.5c-0.4,0-0.7,0-1.1,0.1c-0.3,0.1-0.5,0.2-0.7,0.3l-0.2,1.4H139V6.9
	c0.7-0.4,1.4-0.8,2.2-1.1c0.8-0.3,1.7-0.4,2.6-0.4c1.4-0.1,2.7,0.3,3.8,1.2c1,0.8,1.6,2,1.5,3.3v5.8c0,0.2,0,0.3,0,0.5l1,0.1v2.1
	h-3.9V18.3z M143.2,16c0.5,0,1-0.1,1.4-0.3s0.7-0.5,1-0.8V13h-1.8c-0.6,0-1.2,0.1-1.6,0.5c-0.4,0.3-0.6,0.8-0.6,1.2s0.1,0.7,0.4,1
	C142.4,15.9,142.8,16,143.2,16L143.2,16z"/>
<path class="st1" d="M155.4,2.5v3.1h2.2V8h-2.2v6.5c0,0.4,0.1,0.8,0.3,1.1c0.2,0.2,0.5,0.3,0.8,0.3c0.2,0,0.4,0,0.6,0
	s0.4-0.1,0.6-0.1l0.3,2.5c-0.8,0.2-1.6,0.4-2.4,0.4c-1,0.1-2-0.3-2.7-1c-0.7-0.9-1.1-2-1-3.1V8H150V5.6h1.9V2.5H155.4z"/>
<path class="st1" d="M159.2,16.3l1.7-0.4V2.4L159,2.1V0h5.3v7.2c0.4-0.6,0.9-1,1.5-1.4c0.6-0.3,1.2-0.5,1.9-0.5
	c1.2-0.1,2.3,0.4,3.1,1.3c0.8,1.2,1.2,2.6,1.1,4.1v5.1l1.6,0.4v2.1H167v-2.1l1.5-0.4v-5.1c0.1-0.7-0.1-1.5-0.5-2.1
	c-0.4-0.5-1-0.7-1.6-0.7c-0.4,0-0.9,0.1-1.3,0.3c-0.4,0.2-0.7,0.4-0.9,0.7v6.9l1.5,0.4v2.1h-6.6v-2H159.2z"/>
<path class="st1" d="M193.4,6.7h-2.6l-0.4-2.3c-0.4-0.2-0.8-0.4-1.3-0.5c-0.6-0.1-1.2-0.2-1.8-0.2c-0.8-0.1-1.5,0.2-2.2,0.6
	c-0.5,0.4-0.8,0.9-0.8,1.5s0.3,1.1,0.8,1.4c0.9,0.5,1.8,0.9,2.8,1.2c1.6,0.4,3,1.1,4.3,2.1c1,0.9,1.5,2.1,1.5,3.4
	c0,1.4-0.6,2.7-1.7,3.5c-1.4,0.9-3,1.3-4.6,1.3c-1.3,0-2.5-0.2-3.7-0.6c-1-0.4-1.9-1-2.7-1.8v-3.6h2.6L184,15
	c0.4,0.3,0.9,0.6,1.4,0.7c0.6,0.2,1.3,0.3,2,0.3c0.8,0.1,1.5-0.1,2.1-0.6c0.5-0.4,0.8-0.9,0.7-1.5c0-0.6-0.2-1.2-0.7-1.6
	c-0.7-0.5-1.6-0.9-2.4-1.1c-1.6-0.4-3.2-1.1-4.6-2.1c-1-0.8-1.6-2-1.6-3.3c0-1.4,0.6-2.6,1.8-3.4c1.3-0.9,2.8-1.4,4.4-1.4
	c1.2,0,2.4,0.2,3.6,0.6c1,0.4,1.9,0.9,2.7,1.6V6.7z"/>
<path class="st1" d="M201.1,15.9c0.5,0,1.1-0.2,1.5-0.5c0.4-0.4,0.6-0.9,0.6-1.4h3.1l0,0c0,1.2-0.5,2.4-1.4,3.2
	c-2.4,1.9-5.9,1.7-8.1-0.5c-1.1-1.3-1.6-2.9-1.5-4.6v-0.4c-0.1-1.7,0.5-3.3,1.6-4.6c1.2-1.2,2.8-1.9,4.5-1.8c0.9,0,1.9,0.1,2.8,0.5
	c0.8,0.3,1.4,0.7,2,1.3v3.4h-2.8l-0.6-2c-0.2-0.2-0.4-0.3-0.6-0.4C201.7,8,201.4,8,201.1,8c-0.8-0.1-1.6,0.4-2,1.1
	c-0.4,0.8-0.6,1.8-0.6,2.7v0.4c0,0.9,0.1,1.9,0.6,2.7C199.4,15.6,200.2,16,201.1,15.9z"/>
<path class="st1" d="M207.6,16.3l1.7-0.4V2.4l-1.8-0.3V0h5.2v7.2c0.4-0.6,0.9-1,1.5-1.4c0.6-0.3,1.2-0.5,1.9-0.5
	c1.2-0.1,2.3,0.4,3.1,1.3c0.8,1.2,1.2,2.6,1.1,4.1v5.1l1.6,0.4v2.1h-6.5v-2.1l1.5-0.4v-5.1c0.1-0.7-0.1-1.5-0.5-2.1
	c-0.4-0.5-1-0.7-1.5-0.7c-0.4,0-0.9,0.1-1.3,0.3c-0.4,0.2-0.7,0.4-0.9,0.7v6.9l1.5,0.4v2.1h-6.6V16.3z"/>
<path class="st1" d="M222.9,11.8c-0.1-1.7,0.5-3.4,1.6-4.7c2.4-2.4,6.4-2.4,8.8,0c1.1,1.3,1.7,3,1.6,4.7v0.3
	c0.1,1.7-0.5,3.4-1.6,4.7c-2.4,2.4-6.4,2.4-8.8,0c-1.1-1.3-1.7-3-1.6-4.7V11.8z M226.4,12.1c0,1,0.2,1.9,0.6,2.8
	c0.7,1.1,2.2,1.4,3.2,0.7c0.3-0.2,0.5-0.4,0.7-0.7c0.4-0.9,0.7-1.8,0.6-2.8v-0.3c0-1-0.2-1.9-0.6-2.8c-0.4-0.7-1.2-1.1-2-1.1
	s-1.5,0.4-1.9,1c-0.4,0.9-0.7,1.8-0.6,2.8V12.1z"/>
<path class="st1" d="M236.4,11.8c-0.1-1.7,0.5-3.4,1.6-4.7c2.4-2.4,6.4-2.4,8.8,0c1.1,1.3,1.7,3,1.6,4.7v0.3
	c0.1,1.7-0.5,3.4-1.6,4.7c-2.4,2.4-6.4,2.4-8.8,0c-1.1-1.3-1.7-3-1.6-4.7V11.8z M239.8,12.1c0,1,0.2,1.9,0.6,2.8
	c0.7,1.1,2.2,1.4,3.3,0.7c0.3-0.2,0.5-0.4,0.7-0.7c0.4-0.9,0.7-1.8,0.6-2.8v-0.3c0-1-0.2-1.9-0.6-2.8c-0.4-0.7-1.2-1.1-2-1.1
	c-0.8-0.1-1.6,0.4-1.9,1.1c-0.4,0.9-0.6,1.8-0.6,2.8L239.8,12.1z"/>
<path class="st1" d="M249.3,2.1V0h5.3v15.9l1.7,0.4v2.1h-6.7v-2.1l1.7-0.4V2.4L249.3,2.1z"/>
<path class="st1" d="M62.9,44.3c-0.8,0-1.6-0.1-2.3-0.5c-0.6-0.3-1.2-0.8-1.5-1.4c-0.4-0.7-0.6-1.5-0.6-2.3c0-0.9,0.1-1.9,0.4-2.8
	c0.2-0.6,0.4-1.2,0.7-1.7s0.6-1,1-1.5c0.4-0.4,0.8-0.7,1.3-1s1-0.5,1.5-0.6c0.7-0.2,1.3-0.3,2-0.3c0.8,0,1.7,0.2,2.4,0.5
	c0.6,0.3,1.1,0.9,1.5,1.5c0.3,0.7,0.5,1.4,0.5,2.2c0,1.1-0.2,2.1-0.5,3.1s-0.8,1.8-1.4,2.6c-0.6,0.7-1.3,1.2-2.2,1.6
	C64.7,44.2,63.8,44.4,62.9,44.3z M61.7,40.9c0,0.6,0.1,1.1,0.3,1.7c0.3,0.4,0.7,0.6,1.1,0.5c0.3,0,0.6-0.1,0.8-0.2
	c0.3-0.2,0.6-0.4,0.8-0.6c0.3-0.3,0.5-0.7,0.7-1.1c0.2-0.5,0.4-1.1,0.6-1.7c0.2-0.6,0.3-1.3,0.4-1.9c0.1-0.6,0.2-1.2,0.2-1.8
	s-0.1-1.2-0.4-1.7c-0.2-0.4-0.7-0.6-1.1-0.5c-0.7,0-1.3,0.4-1.7,1c-0.6,0.9-1,1.9-1.2,3C61.9,38.6,61.7,39.8,61.7,40.9z"/>
<path class="st1" d="M72.2,34l0.2-0.8c0.2,0,0.5-0.1,0.7-0.1s0.3-0.1,0.4-0.2c0.1-0.1,0.2-0.3,0.3-0.4c0.1-0.3,0.3-0.7,0.3-1
	c0.2-0.6,0.4-1.3,0.7-1.9c0.6-1,1.7-1.8,2.8-2.1c0.7-0.2,1.4-0.3,2.1-0.3h1c0.4,0,0.8,0.1,1.2,0.2l-0.5,2.4H80c0-0.3-0.1-0.7-0.2-1
	c-0.1-0.2-0.3-0.3-0.6-0.3c-0.2,0-0.3,0-0.5,0.1s-0.3,0.2-0.4,0.4c-0.2,0.2-0.3,0.5-0.4,0.8c-0.2,0.5-0.3,1-0.4,1.4l-0.3,1.3h2.2
	L79.1,34h-2.2l-2.1,9.8c-0.2,1.1-0.6,2.1-1.2,3.1c-0.5,0.8-1.1,1.4-1.9,1.9c-0.9,0.4-1.9,0.7-2.9,0.6c-0.4,0-0.7-0.1-1.1-0.2L68,48
	c0.3,0.1,0.5,0.1,0.8,0.1s0.6,0,0.9-0.2c0.2-0.1,0.4-0.3,0.6-0.5c0.2-0.3,0.4-0.6,0.5-1c0.2-0.5,0.3-1.1,0.5-2L73.6,34H72.2z"/>
<path class="st1" d="M97,29.1l-1.4,0.2l2.7,5.6h0.1l2.7-5.6l-1.4-0.2V27h6.4v2.1l-1.5,0.2l-4.6,8.8v3.6l1.8,0.4v2h-7.1v-2l1.8-0.4
	V38l-4.6-8.6l-1.4-0.2v-2.1H97V29.1z"/>
<path class="st1" d="M112.5,44.4c-1.6,0.1-3.2-0.6-4.4-1.8c-1.1-1.2-1.7-2.8-1.6-4.5v-0.5c-0.1-1.7,0.5-3.4,1.6-4.7
	c2.2-2.3,5.8-2.4,8.2-0.3c1,1.2,1.5,2.7,1.4,4.3v1.9h-7.6v0.1c0,0.8,0.3,1.5,0.8,2.1c0.5,0.5,1.2,0.8,2,0.8c0.6,0,1.3-0.1,1.9-0.2
	c0.6-0.2,1.1-0.4,1.6-0.7l0.9,2.1c-0.6,0.4-1.3,0.8-2,1C114.4,44.3,113.5,44.4,112.5,44.4z M112.2,33.9c-0.6,0-1.2,0.2-1.5,0.7
	c-0.4,0.6-0.7,1.2-0.7,1.9v0.1h4.2v-0.3c0-0.6-0.1-1.2-0.5-1.7C113.3,34.1,112.8,33.8,112.2,33.9z"/>
<path class="st1" d="M119.5,42.1l1.7-0.4v-7.9l-1.8-0.3v-2.1h5l0.2,1.9c0.3-0.6,0.6-1.1,1.2-1.5c0.5-0.4,1-0.6,1.6-0.5
	c0.2,0,0.4,0,0.6,0s0.3,0.1,0.5,0.1l-0.3,3.2h-1.4c-0.4,0-0.9,0.1-1.2,0.3c-0.3,0.2-0.6,0.5-0.8,0.8v6.2l1.7,0.4v2h-6.7L119.5,42.1z
	"/>
<path class="st1" d="M135.2,44.4c-1.6,0.1-3.2-0.6-4.4-1.8c-1.1-1.2-1.7-2.8-1.6-4.5v-0.5c-0.1-1.7,0.5-3.4,1.6-4.7
	c1-1.2,2.6-1.9,4.2-1.8c1.5-0.1,3,0.5,4,1.5c1,1.2,1.5,2.7,1.4,4.3v1.9h-7.6v0.1c0,0.8,0.3,1.5,0.8,2.1c0.5,0.5,1.2,0.8,2,0.8
	c0.6,0,1.3-0.1,1.9-0.2c0.6-0.2,1.1-0.4,1.6-0.7L140,43c-0.6,0.4-1.3,0.8-2,1C137.1,44.3,136.2,44.4,135.2,44.4z M134.9,33.9
	c-0.6,0-1.2,0.3-1.5,0.7c-0.4,0.6-0.6,1.2-0.7,1.9v0.1h4.3v-0.3c0-0.6-0.1-1.2-0.5-1.7C136.1,34.1,135.5,33.8,134.9,33.9z"/>
<path class="st1" d="M147.2,33.5l-1.2,0.2l1.7,5.7l0.2,1.2h0.1l0.3-1.2l1.6-5.7l-1.2-0.2v-2.1h5.8v2.1l-1.1,0.2l-3.7,10.5h-3.3
	l-3.8-10.5l-1.1-0.2v-2.1h5.8L147.2,33.5z"/>
<path class="st1" d="M163.4,44.2c-0.1-0.2-0.2-0.4-0.3-0.7c-0.1-0.2-0.1-0.4-0.2-0.7c-0.4,0.5-0.9,0.9-1.5,1.2s-1.3,0.5-2,0.4
	c-1.1,0.1-2.2-0.3-3-1c-0.7-0.7-1.2-1.7-1.1-2.8c0-1.1,0.5-2.2,1.4-2.8c1.3-0.7,2.7-1.1,4.2-1h1.8v-1.3c0-0.5-0.2-1-0.5-1.4
	c-0.4-0.4-1-0.5-1.6-0.5c-0.3,0-0.7,0-1,0.1s-0.5,0.2-0.7,0.3l-0.2,1.4h-2.6v-2.8c0.7-0.4,1.4-0.8,2.1-1.1c0.8-0.3,1.7-0.4,2.6-0.4
	c1.4-0.1,2.7,0.3,3.8,1.2c1,0.8,1.5,2,1.5,3.3v5.3c0,0.2,0,0.4,0,0.5c0,0.2,0,0.3,0,0.5l1,0.1v2L163.4,44.2z M160.4,41.9
	c0.5,0,1-0.1,1.4-0.3s0.7-0.5,1-0.8v-1.9H161c-0.6,0-1.2,0.1-1.6,0.5c-0.4,0.3-0.6,0.8-0.6,1.2s0.1,0.7,0.4,1
	C159.6,41.8,160,41.9,160.4,41.9L160.4,41.9z"/>
<path class="st1" d="M168.3,42.1l1.6-0.4v-7.9l-1.8-0.3v-2.1h5l0.1,1.8c0.4-0.6,0.9-1.1,1.6-1.5c0.6-0.4,1.4-0.5,2.1-0.5
	c1.1-0.1,2.2,0.4,3,1.2c0.8,1.1,1.2,2.4,1.1,3.8v5.5l1.6,0.4v2H176v-2l1.5-0.4v-5.5c0.1-0.6-0.1-1.3-0.5-1.8c-0.4-0.4-1-0.6-1.6-0.5
	c-0.4,0-0.8,0.1-1.2,0.3s-0.7,0.4-0.9,0.8v6.8l1.4,0.4v2h-6.4L168.3,42.1z"/>
</svg>
