<svg xmlns="http://www.w3.org/2000/svg" viewBox="0 0 28 28"><defs><style>.cls-1{fill:none;stroke:#4e5c69;stroke-linejoin:round;stroke-width:1.5px;}</style></defs><title>messenger</title><g id="Layer_2" data-name="Layer 2"><g id="Layer_2-2" data-name="Layer 2"><path class="cls-1" d="M9.08,24.42l-5,2.83,1.78-6.11A11,11,0,0,1,.75,11.81,11.06,11.06,0,0,1,11.81.75h4.38A11.06,11.06,0,0,1,27.25,11.81a10.5,10.5,0,0,1-.19,2"/><path class="cls-1" d="M27.25,15.6a8.23,8.23,0,0,1-1.06,4.07,8.39,8.39,0,0,1-2.8,3l1.34,4.61L18.9,24H15.6a8.35,8.35,0,0,1,0-16.7h3.3a8.34,8.34,0,0,1,8.16,6.59A7.78,7.78,0,0,1,27.25,15.6Z"/></g></g></svg>