<svg xmlns="http://www.w3.org/2000/svg" viewBox="0 0 27.65 28"><defs><style>.cls-1{fill:none;stroke:#4e5c69;stroke-linejoin:round;stroke-width:1.5px;}</style></defs><title>setting</title><g id="Layer_2" data-name="Layer 2"><g id="Layer_2-2" data-name="Layer 2"><path class="cls-1" d="M18.36,14a4.54,4.54,0,1,1-4.54-4.54A4.54,4.54,0,0,1,18.36,14Z"/><path class="cls-1" d="M25.18,20.83l1.72-3a4.39,4.39,0,0,1-1.64-1.62,4.47,4.47,0,0,1,1.63-6.11h0L23.7,4.61a4.43,4.43,0,0,1-2.22.61A4.47,4.47,0,0,1,17,.75H10.63A4.47,4.47,0,0,1,10.05,3,4.48,4.48,0,0,1,3.94,4.62L.75,10.14a4.39,4.39,0,0,1,1.64,1.62A4.48,4.48,0,0,1,.76,17.87h0L4,23.39a4.44,4.44,0,0,1,6.69,3.86H17a4.44,4.44,0,0,1,6.69-3.87"/></g></g></svg>