<svg xmlns="http://www.w3.org/2000/svg" viewBox="0 0 28.5 28.5"><title>smile</title><g id="Layer_2" data-name="Layer 2"><g id="Layer_2-2" data-name="Layer 2"><path d="M17.44,28.5H11.06A11.07,11.07,0,0,1,0,17.44V11.06A11.07,11.07,0,0,1,11.06,0h6.38A11.07,11.07,0,0,1,28.5,11.06v6.38A11.07,11.07,0,0,1,17.44,28.5ZM11.06,2A9.08,9.08,0,0,0,2,11.06v6.38a9.08,9.08,0,0,0,9.06,9.06h6.38a9.08,9.08,0,0,0,9.06-9.06V11.06A9.08,9.08,0,0,0,17.44,2Z"/><path d="M7.19,15.61a1,1,0,0,1-1-1V7.54a1,1,0,1,1,2,0v7.07A1,1,0,0,1,7.19,15.61Z"/><path d="M21.31,15.61a1,1,0,0,1-1-1V7.54a1,1,0,1,1,2,0v7.07A1,1,0,0,1,21.31,15.61Z"/><path d="M17.83,23H10.67a4.49,4.49,0,0,1-4.48-4.48,1,1,0,1,1,2,0A2.49,2.49,0,0,0,10.67,21h7.16a2.49,2.49,0,0,0,2.48-2.48,1,1,0,0,1,2,0A4.49,4.49,0,0,1,17.83,23Z"/></g></g></svg>